<svg aria-hidden="true" style="position: absolute; width: 0; height: 0; overflow: hidden;" version="1.1" xmlns="http://www.w3.org/2000/svg" xmlns:xlink="http://www.w3.org/1999/xlink">
<defs>
<symbol id="icon-arrow_down" viewBox="0 0 22 32">
<path stroke-linejoin="bevel" stroke-linecap="square" stroke-miterlimit="4" stroke-width="1.1034" d="M11.096 0.551v30.897M11.096 31.448l9.931-9.931M11.096 31.448l-9.931-9.931"></path>
</symbol>
<symbol id="icon-hero_svg" viewBox="0 0 34 32">
<path d="M4.188 29.065c1.446 1.371 3.303 2.355 5.262 2.734 1.674 0.318 3.395 0.214 5.008-0.285 0.465-0.152 0.914-0.368 1.364-0.658 2.031-1.258 4.071-3.453 6.715-3.759 3.267-0.364 8.771 0.843 12.983-2.504 1.221-0.957 2.055-2.4 2.463-3.935 0.329-1.24 0.276-2.577 0.011-3.826-0.424-2.029-1.33-3.893-2.536-5.615-0.681-0.982-1.477-1.914-2.285-2.789-1.667-1.791-3.537-3.403-5.577-4.784-3.096-2.071-6.698-3.597-10.416-3.628-0.834-0.002-1.68 0.053-2.494 0.234-1.014 0.212-1.968 0.557-2.912 0.993-1.289 0.585-2.495 1.336-3.617 2.181-3.921 2.964-6.847 7.32-7.818 12.205-1.055 5.551 0.783 10.538 3.848 13.437z"></path>
<path d="M4.188 29.065c1.446 1.371 3.303 2.355 5.262 2.734 1.674 0.318 3.395 0.214 5.008-0.285 0.465-0.152 0.914-0.368 1.364-0.658 2.031-1.258 4.071-3.453 6.715-3.759 3.267-0.364 8.771 0.843 12.983-2.504 1.221-0.957 2.055-2.4 2.463-3.935 0.329-1.24 0.276-2.577 0.011-3.826-0.424-2.029-1.33-3.893-2.536-5.615-0.681-0.982-1.477-1.914-2.285-2.789-1.667-1.791-3.537-3.403-5.577-4.784-3.096-2.071-6.698-3.597-10.416-3.628-0.834-0.002-1.68 0.053-2.494 0.234-1.014 0.212-1.968 0.557-2.912 0.993-1.289 0.585-2.495 1.336-3.617 2.181-3.921 2.964-6.847 7.32-7.818 12.205-1.055 5.551 0.783 10.538 3.848 13.437z"></path>
</symbol>
<symbol id="icon-chevron_down" viewBox="0 0 31 32">
<path d="M15.36 20.753l7.693-7.693-1.809-1.811-5.884 5.888-5.883-5.888-1.81 1.81 7.693 7.694z"></path>
</symbol>
</defs>
</svg>
